<svg xmlns="http://www.w3.org/2000/svg" version="1.1" xmlns:xlink="http://www.w3.org/1999/xlink" xmlns:svgjs="http://svgjs.dev/svgjs" width="128" height="128" viewBox="0 0 128 128"><g transform="matrix(0.8046875,0,0,0.8046875,12.333870967741937,12.333870967741937)"><svg viewBox="0 0 155 155" data-background-color="#0080ff" preserveAspectRatio="xMidYMid meet" height="128" width="128" xmlns="http://www.w3.org/2000/svg" xmlns:xlink="http://www.w3.org/1999/xlink"><g id="tight-bounds" transform="matrix(1,0,0,1,0.25,0.25)"><svg viewBox="0 0 154.5 154.5" height="154.5" width="154.5"><g><svg></svg></g><g><svg viewBox="0 0 154.5 154.5" height="154.5" width="154.5"><g transform="matrix(1,0,0,1,62.616200016,47.746371)"><svg viewBox="0 0 29.267599968 59.00725799999999" height="59.00725799999999" width="29.267599968"><g><svg viewBox="0 0 29.267599968 59.00725799999999" height="59.00725799999999" width="29.267599968"><g><svg viewBox="0 0 29.267599968 59.00725799999999" height="59.00725799999999" width="29.267599968"><g><svg viewBox="0 0 29.267599968 59.00725799999999" height="59.00725799999999" width="29.267599968"><g><svg viewBox="0 0 29.267599968 59.00725799999999" height="59.00725799999999" width="29.267599968"><g transform="matrix(1,0,0,1,0,0)"><svg width="29.267599968" viewBox="2.85 -37.5 18.599999999999998 37.5" height="59.00725799999999" data-palette-color="#ffffff"><path d="M13.6-25Q17.4-25 19.43-22.03 21.45-19.05 21.45-14L21.45-14 21.45 0 17.1 0 17.1-13.45Q17.1-17.35 16-19.18 14.9-21 12.6-21L12.6-21Q10.9-21 9.53-20.08 8.15-19.15 7.2-17.5L7.2-17.5 7.2 0 2.85 0 2.85-37.5 7.2-37.5 7.2-21.9Q8.25-23.35 9.95-24.18 11.65-25 13.6-25L13.6-25Z" opacity="1" transform="matrix(1,0,0,1,0,0)" fill="#ffffff" class="undefined-text-0" data-fill-palette-color="primary" id="text-0"></path></svg></g></svg></g></svg></g></svg></g></svg></g></svg></g><path d="M62.616 41.746L62.616 1 91.884 1 91.884 41.746 86.562 41.746 86.562 6.321 67.938 6.321 67.938 41.746 62.616 41.746M62.616 112.754L62.616 153.5 91.884 153.5 91.884 112.754 86.562 112.754 86.562 148.179 67.938 148.179 67.938 112.754 62.616 112.754" fill="#ffffff" stroke="transparent" data-fill-palette-color="primary"></path></svg></g><defs></defs></svg><rect width="154.5" height="154.5" fill="none" stroke="none" visibility="hidden"></rect></g></svg></g></svg>